<svg xmlns="http://www.w3.org/2000/svg" viewBox="0 0 15 15" shape-rendering="crispEdges">
  <rect width="15" height="15" fill="#1A1815"/>
  <g fill="#F4F0EC">
    <rect x="2" y="2" width="4" height="1"/><rect x="2" y="3" width="1" height="3"/><rect x="5" y="3" width="1" height="3"/><rect x="2" y="6" width="4" height="1"/>
    <rect x="8" y="2" width="4" height="1"/><rect x="8" y="3" width="1" height="3"/><rect x="8" y="6" width="4" height="1"/>
  </g>
  <g fill="#B8AFA6">
    <rect x="2" y="9" width="4" height="1"/><rect x="2" y="10" width="1" height="3"/><rect x="4" y="11" width="2" height="1"/><rect x="5" y="11" width="1" height="2"/><rect x="2" y="12" width="4" height="1"/>
    <rect x="8" y="9" width="4" height="1"/><rect x="8" y="10" width="1" height="3"/><rect x="11" y="10" width="1" height="3"/><rect x="8" y="12" width="4" height="1"/>
  </g>
</svg>
